<svg width="21" height="20" viewBox="0 0 21 20" fill="none" xmlns="http://www.w3.org/2000/svg">
<g id="heroicons-solid/check-circle">
<path id="Subtract" fill-rule="evenodd" clip-rule="evenodd" d="M2.375 10C2.375 5.51269 6.01269 1.875 10.5 1.875C14.9873 1.875 18.625 5.51269 18.625 10C18.625 14.4873 14.9873 18.125 10.5 18.125C6.01269 18.125 2.375 14.4873 2.375 10ZM13.5086 8.48827C13.7092 8.20739 13.6442 7.81705 13.3633 7.61642C13.0824 7.41579 12.692 7.48084 12.4914 7.76173L9.79525 11.5364L8.44194 10.1831C8.19786 9.93898 7.80214 9.93898 7.55806 10.1831C7.31398 10.4271 7.31398 10.8229 7.55806 11.0669L9.43306 12.9419C9.56297 13.0719 9.74346 13.138 9.92655 13.1229C10.1096 13.1077 10.2768 13.0128 10.3836 12.8633L13.5086 8.48827Z" fill="white"/>
</g>
</svg>
